<?xml version="1.0" encoding="utf-8"?>
<!-- Generator: Adobe Illustrator 16.0.0, SVG Export Plug-In . SVG Version: 6.00 Build 0)  -->
<!DOCTYPE svg PUBLIC "-//W3C//DTD SVG 1.1//EN" "http://www.w3.org/Graphics/SVG/1.1/DTD/svg11.dtd">
<svg version="1.1" id="Layer_1" xmlns="http://www.w3.org/2000/svg" xmlns:xlink="http://www.w3.org/1999/xlink" x="0px" y="0px"
	 width="32px" height="32px" viewBox="0 0 32 32" enable-background="new 0 0 32 32" xml:space="preserve">
<path id="White_2_" fill="#FFFFFF" d="M30.169,0.072H1.831c-0.972,0-1.759,0.787-1.759,1.759v28.338
	c0,0.971,0.787,1.759,1.759,1.759h15.256V19.591h-4.151v-4.808h4.151v-3.545c0-4.114,2.513-6.354,6.183-6.354
	c1.759,0,3.27,0.131,3.71,0.189v4.3l-2.546,0.001c-1.995,0-2.382,0.948-2.382,2.341v3.068h4.761l-0.62,4.808h-4.141v12.337h8.117
	c0.971,0,1.759-0.788,1.759-1.759V1.831C31.928,0.859,31.14,0.072,30.169,0.072z"/>
</svg>
