<?xml version="1.0" encoding="utf-8"?>
<!-- Generator: Adobe Illustrator 16.0.0, SVG Export Plug-In . SVG Version: 6.00 Build 0)  -->
<!DOCTYPE svg PUBLIC "-//W3C//DTD SVG 1.1//EN" "http://www.w3.org/Graphics/SVG/1.1/DTD/svg11.dtd">
<svg version="1.1" id="Layer_1" xmlns="http://www.w3.org/2000/svg" xmlns:xlink="http://www.w3.org/1999/xlink" x="0px" y="0px"
	 width="32px" height="32px" viewBox="-12 -12 32 32" enable-background="new -12 -12 32 32" xml:space="preserve">
<g>
	<g>
		<path fill="#FFFFFF" d="M11.207-11.688H-3.21c-4.674,0-8.477,3.803-8.477,8.478v14.418c0,4.677,3.803,8.479,8.477,8.479h14.417
			c4.678,0,8.48-3.803,8.48-8.479V-3.21C19.688-7.885,15.885-11.688,11.207-11.688z M17.152,11.208c0,3.277-2.666,5.944-5.945,5.944
			H-3.21c-3.276,0-5.941-2.667-5.941-5.944V-3.21c0-3.276,2.666-5.941,5.941-5.941h14.417c3.279,0,5.945,2.665,5.945,5.941V11.208z"
			/>
	</g>
</g>
<g>
	<g>
		<path fill="#FFFFFF" d="M11.023,2.904c-0.225-1.503-0.91-2.867-1.986-3.94C7.961-2.112,6.596-2.798,5.096-3.021
			c-0.686-0.103-1.38-0.103-2.064,0C1.172-2.746-0.47-1.762-1.587-0.253c-1.121,1.509-1.587,3.364-1.311,5.222
			s1.261,3.502,2.769,4.62c1.226,0.907,2.678,1.386,4.177,1.386c0.346,0,0.698-0.026,1.045-0.076
			c1.859-0.276,3.502-1.261,4.621-2.77C10.834,6.619,11.301,4.764,11.023,2.904z M4.723,8.388C3.533,8.566,2.348,8.267,1.382,7.554
			C0.416,6.834-0.212,5.787-0.39,4.598c-0.175-1.189,0.121-2.375,0.838-3.342c0.717-0.965,1.766-1.593,2.955-1.769
			c0.218-0.033,0.438-0.051,0.66-0.051c0.22,0,0.441,0.018,0.66,0.051c1.975,0.292,3.498,1.814,3.789,3.791
			C8.879,5.734,7.178,8.026,4.723,8.388z"/>
	</g>
</g>
<g>
	<g>
		<path fill="#FFFFFF" d="M12.828-4.828c-0.238-0.235-0.562-0.369-0.896-0.369c-0.332,0-0.662,0.134-0.896,0.369
			c-0.236,0.238-0.371,0.562-0.371,0.896c0,0.335,0.135,0.66,0.371,0.896c0.234,0.237,0.564,0.372,0.896,0.372
			c0.334,0,0.658-0.135,0.896-0.372c0.232-0.236,0.371-0.562,0.371-0.896C13.199-4.266,13.061-4.59,12.828-4.828z"/>
	</g>
</g>
</svg>
