<?xml version="1.0" encoding="utf-8"?>
<!-- Generator: Adobe Illustrator 16.0.0, SVG Export Plug-In . SVG Version: 6.00 Build 0)  -->
<!DOCTYPE svg PUBLIC "-//W3C//DTD SVG 1.1//EN" "http://www.w3.org/Graphics/SVG/1.1/DTD/svg11.dtd">
<svg version="1.1" id="Layer_1" xmlns="http://www.w3.org/2000/svg" xmlns:xlink="http://www.w3.org/1999/xlink" x="0px" y="0px"
	 width="32px" height="32px" viewBox="0 0 32 32" enable-background="new 0 0 32 32" xml:space="preserve">
<circle fill="#CD202A" cx="16" cy="15.999" r="15.501"/>
<path id="pinterest-icon" fill="#FFFFFF" d="M9.876,29.303c0.563-2.607,1.259-7.232,2.342-10.593
	c-1.175-2.619-1.031-6.85,2.64-6.709s0.705,6.398,0.506,7.304c-0.258,1.179,0.612,4.813,4.015,3.057
	c3.384-1.746,3.855-8.839,2.978-10.438c-2.063-4.298-10.384-5.137-12.796,0.492c-1.608,3.951-0.805,6.014,0.314,6.818
	c0.264,0.256,0.076,2.587-1.221,2.133s-3.5-2.937-2.939-7.378c0.566-4.493,5.248-9.421,13.075-7.831
	c7.133,1.448,8.312,7.578,7.237,12.621c-0.733,3.442-3.321,7.167-8.812,6.363c-1.554-0.139-2.97-1.678-2.97-1.678
	c-0.209,1.049-1.678,6.729-2.517,7.237C10.256,31.601,9.667,30.271,9.876,29.303z"/>
</svg>
