<?xml version="1.0" encoding="utf-8"?>
<!-- Generator: Adobe Illustrator 16.0.0, SVG Export Plug-In . SVG Version: 6.00 Build 0)  -->
<!DOCTYPE svg PUBLIC "-//W3C//DTD SVG 1.1//EN" "http://www.w3.org/Graphics/SVG/1.1/DTD/svg11.dtd">
<svg version="1.1" id="Layer_1" xmlns="http://www.w3.org/2000/svg" xmlns:xlink="http://www.w3.org/1999/xlink" x="0px" y="0px"
	 width="32px" height="32px" viewBox="0 0 32 32" enable-background="new 0 0 32 32" xml:space="preserve">
<path fill="#FFFFFF" d="M27.846,31.793H4.155c-2.179,0-3.949-1.771-3.949-3.947V4.155c0-2.179,1.77-3.949,3.949-3.949h23.69
	c2.176,0,3.947,1.77,3.947,3.949v23.69C31.793,30.021,30.021,31.793,27.846,31.793z M12.335,24.023
	c7.448,0,11.522-6.178,11.522-11.521c0-0.175,0-0.349-0.008-0.522c0.785-0.569,1.473-1.287,2.02-2.099
	c-0.725,0.324-1.508,0.536-2.326,0.639c0.834-0.499,1.475-1.294,1.779-2.243c-0.779,0.466-1.65,0.798-2.574,0.98
	c-0.74-0.791-1.789-1.28-2.949-1.28c-2.236,0-4.051,1.816-4.051,4.053c0,0.316,0.037,0.622,0.102,0.923
	c-3.365-0.165-6.35-1.784-8.347-4.232c-0.349,0.599-0.545,1.294-0.545,2.035c0,1.406,0.718,2.646,1.8,3.374
	c-0.662-0.024-1.287-0.205-1.831-0.506c0,0.016,0,0.032,0,0.055c0,1.959,1.397,3.602,3.245,3.973
	c-0.339,0.092-0.693,0.141-1.066,0.141c-0.261,0-0.513-0.023-0.757-0.072c0.512,1.611,2.012,2.783,3.782,2.814
	c-1.39,1.088-3.135,1.736-5.029,1.736c-0.324,0-0.648-0.014-0.964-0.055C7.921,23.348,10.055,24.023,12.335,24.023"/>
</svg>
