<?xml version="1.0" encoding="utf-8"?>
<!-- Generator: Adobe Illustrator 16.0.0, SVG Export Plug-In . SVG Version: 6.00 Build 0)  -->
<!DOCTYPE svg PUBLIC "-//W3C//DTD SVG 1.1//EN" "http://www.w3.org/Graphics/SVG/1.1/DTD/svg11.dtd">
<svg version="1.1" id="Layer_1" xmlns="http://www.w3.org/2000/svg" xmlns:xlink="http://www.w3.org/1999/xlink" x="0px" y="0px"
	 width="86.25px" height="22.75px" viewBox="0 0 86.25 22.75" enable-background="new 0 0 86.25 22.75" xml:space="preserve">
<path fill="#ED2224" d="M27.497,4.661c-0.304-1.133-1.196-2.025-2.329-2.328c-2.054-0.551-10.289-0.551-10.289-0.551
	s-8.235,0-10.289,0.551C3.457,2.636,2.564,3.528,2.262,4.661C1.711,6.715,1.711,11,1.711,11s0,4.285,0.551,6.339
	c0.303,1.133,1.195,2.025,2.328,2.328c2.054,0.551,10.289,0.551,10.289,0.551s8.235,0,10.289-0.551
	c1.133-0.303,2.025-1.195,2.329-2.328c0.55-2.054,0.55-6.339,0.55-6.339S28.047,6.715,27.497,4.661"/>
<polygon fill="#FFFFFF" points="12.245,14.95 19.088,11 12.245,7.05 "/>
<path fill="#FFFFFF" d="M39.938,18.554c-0.521-0.352-0.892-0.898-1.111-1.639s-0.329-1.727-0.329-2.957v-1.676
	c0-1.243,0.125-2.241,0.377-2.994c0.25-0.754,0.643-1.303,1.177-1.648c0.533-0.345,1.233-0.518,2.1-0.518
	c0.854,0,1.538,0.176,2.053,0.527c0.516,0.352,0.892,0.9,1.13,1.647s0.358,1.742,0.358,2.985v1.676c0,1.23-0.116,2.22-0.349,2.966
	c-0.232,0.747-0.609,1.294-1.13,1.639c-0.521,0.346-1.228,0.518-2.119,0.518C41.178,19.08,40.458,18.904,39.938,18.554
	 M42.856,16.745c0.145-0.376,0.217-0.991,0.217-1.846v-3.597c0-0.828-0.072-1.435-0.217-1.817s-0.398-0.574-0.763-0.574
	c-0.352,0-0.6,0.191-0.744,0.574s-0.216,0.989-0.216,1.817v3.597c0,0.854,0.068,1.47,0.207,1.846
	c0.138,0.377,0.389,0.565,0.753,0.565S42.712,17.122,42.856,16.745"/>
<path fill="#FFFFFF" d="M79.938,13.985v0.584c0,0.741,0.021,1.297,0.066,1.667c0.044,0.37,0.135,0.64,0.272,0.81
	c0.139,0.169,0.352,0.255,0.641,0.255c0.389,0,0.656-0.151,0.801-0.452c0.144-0.302,0.223-0.804,0.235-1.507l2.241,0.132
	c0.013,0.101,0.019,0.238,0.019,0.414c0,1.067-0.292,1.864-0.876,2.392c-0.583,0.527-1.409,0.791-2.477,0.791
	c-1.28,0-2.178-0.401-2.693-1.205c-0.515-0.804-0.772-2.047-0.772-3.729v-2.016c0-1.732,0.268-2.997,0.801-3.795
	c0.534-0.797,1.447-1.195,2.74-1.195c0.892,0,1.576,0.163,2.053,0.489c0.478,0.326,0.813,0.835,1.008,1.525s0.292,1.645,0.292,2.862
	v1.978H79.938z M80.269,9.127c-0.132,0.163-0.22,0.43-0.264,0.8c-0.045,0.371-0.066,0.933-0.066,1.686v0.829h1.902v-0.829
	c0-0.74-0.025-1.302-0.075-1.686c-0.051-0.383-0.142-0.652-0.273-0.81s-0.336-0.235-0.611-0.235
	C80.604,8.882,80.4,8.964,80.269,9.127"/>
<path fill="#FFFFFF" d="M33.609,13.77L30.652,3.091h2.58l1.035,4.841c0.264,1.192,0.459,2.209,0.584,3.051h0.075
	c0.088-0.604,0.283-1.613,0.584-3.032l1.074-4.859h2.579L36.17,13.77v5.123h-2.561V13.77z"/>
<path fill="#FFFFFF" d="M54.083,7.348v11.545h-2.034l-0.226-1.413h-0.057c-0.553,1.067-1.381,1.601-2.486,1.601
	c-0.766,0-1.331-0.25-1.695-0.753c-0.364-0.502-0.546-1.287-0.546-2.354V7.348h2.6v8.475c0,0.516,0.056,0.882,0.169,1.102
	c0.113,0.221,0.302,0.33,0.565,0.33c0.226,0,0.442-0.069,0.649-0.207c0.207-0.139,0.361-0.314,0.462-0.527V7.348H54.083z"/>
<path fill="#FFFFFF" d="M67.414,7.348v11.545H65.38l-0.226-1.413h-0.057c-0.553,1.067-1.381,1.601-2.486,1.601
	c-0.766,0-1.33-0.25-1.694-0.753c-0.364-0.502-0.547-1.287-0.547-2.354V7.348h2.6v8.475c0,0.516,0.057,0.882,0.169,1.102
	c0.113,0.221,0.302,0.33,0.565,0.33c0.226,0,0.442-0.069,0.649-0.207c0.207-0.139,0.361-0.314,0.462-0.527V7.348H67.414z"/>
<polygon fill="#FFFFFF" points="61.146,5.182 58.565,5.182 58.565,18.893 56.022,18.893 56.022,5.182 53.442,5.182 53.442,3.091 
	61.146,3.091 "/>
<path fill="#FFFFFF" d="M76.016,9.193c-0.157-0.729-0.411-1.256-0.763-1.582s-0.835-0.49-1.45-0.49
	c-0.477,0-0.923,0.136-1.337,0.405s-0.734,0.625-0.96,1.064h-0.02V2.508h-2.505v16.385h2.147l0.264-1.093h0.057
	c0.2,0.389,0.502,0.696,0.903,0.923c0.402,0.226,0.848,0.339,1.338,0.339c0.878,0,1.525-0.405,1.939-1.215s0.621-2.074,0.621-3.795
	v-1.827C76.251,10.933,76.173,9.922,76.016,9.193 M73.634,13.902c0,0.841-0.035,1.5-0.104,1.978
	c-0.068,0.478-0.185,0.816-0.348,1.017c-0.163,0.201-0.384,0.302-0.659,0.302c-0.214,0-0.411-0.05-0.593-0.151
	c-0.183-0.1-0.33-0.251-0.443-0.452v-6.553c0.088-0.314,0.238-0.572,0.452-0.772s0.445-0.302,0.697-0.302
	c0.264,0,0.467,0.104,0.611,0.311s0.245,0.556,0.302,1.046c0.057,0.489,0.085,1.186,0.085,2.09V13.902z"/>
<rect x="-16.618" y="-16.652" fill="none" width="119.236" height="55.305"/>
</svg>
